<svg width="34" height="34" viewBox="0 0 34 34" fill="none" xmlns="http://www.w3.org/2000/svg">
<path d="M24.7059 25.2956C24.6844 25.2534 24.7012 25.2017 24.7434 25.1801L25.8456 24.6184C25.8878 24.5969 25.9396 24.6137 25.9611 24.656L26.2784 25.2789C26.3729 25.4692 26.3872 25.6502 26.3215 25.8217C26.2558 25.9932 26.1214 26.1308 25.9182 26.2344C25.7329 26.3288 25.562 26.3481 25.4056 26.2923C25.2502 26.2384 25.1207 26.1099 25.0171 25.9066L24.7059 25.2956Z" fill="#4285F4"/>
<path fill-rule="evenodd" clip-rule="evenodd" d="M28.7382 30H5.2594C4.32435 30 3.71625 29.0158 4.13443 28.1793L15.8738 4.69546C16.3374 3.76818 17.6603 3.76818 18.1238 4.69546L29.8632 28.1793C30.2813 29.0158 29.6732 30 28.7382 30ZM21.394 27.4839C21.5216 27.4839 21.6046 27.3495 21.5476 27.2353L14.6368 13.4107C14.5735 13.2841 14.3929 13.2841 14.3296 13.4107L7.41885 27.2353C7.36176 27.3495 7.44479 27.4839 7.57245 27.4839H21.394ZM17.3624 12.7867C17.3326 12.9399 17.241 13.0557 17.0876 13.1339C16.9521 13.2029 16.8206 13.2059 16.6931 13.1428C16.5686 13.0808 16.4622 12.9631 16.3739 12.7897C16.2359 12.5187 16.1907 12.2945 16.2383 12.117C16.2833 11.9605 16.4 11.8266 16.5886 11.7155C16.6295 11.6914 16.6465 11.6399 16.625 11.5977L16.1669 10.6985C16.1454 10.6563 16.0936 10.6393 16.0524 10.6627C15.8026 10.8048 15.6103 10.9924 15.4755 11.2256C15.3305 11.4828 15.2668 11.7863 15.2844 12.1363C15.3051 12.4872 15.4053 12.8391 15.5849 13.1918C15.8398 13.692 16.1488 14.0302 16.5122 14.2065C16.8755 14.3828 17.2475 14.3739 17.628 14.18C18.1042 13.9373 18.358 13.5118 18.3893 12.9034C18.4024 12.6533 18.3802 12.3533 18.3225 12.0037C18.2669 11.653 18.2534 11.3951 18.2821 11.2298C18.3129 11.0635 18.384 10.952 18.4956 10.8951C18.6231 10.8301 18.7551 10.8306 18.8916 10.8966C19.0311 10.9636 19.1486 11.0907 19.244 11.278C19.3384 11.4634 19.3642 11.6347 19.3214 11.7921C19.2859 11.9277 19.2012 12.0384 19.0673 12.1241C19.0274 12.1496 19.0102 12.2009 19.0318 12.2432L19.4868 13.1363C19.5083 13.1786 19.5601 13.1956 19.6012 13.1719C19.829 13.0406 20.0039 12.8657 20.126 12.6472C20.2631 12.4041 20.324 12.1295 20.3087 11.8236C20.2944 11.5196 20.2076 11.2112 20.0482 10.8983C19.8847 10.5775 19.6857 10.3149 19.4512 10.1107C19.2186 9.90537 18.9737 9.7792 18.7163 9.73214C18.4619 9.68606 18.2142 9.72445 17.9731 9.84731C17.489 10.0941 17.2521 10.57 17.2625 11.2751C17.2651 11.4921 17.2901 11.7605 17.3376 12.0802C17.385 12.3999 17.3933 12.6354 17.3624 12.7867ZM20.2981 18.01C20.3196 18.0523 20.3713 18.0691 20.4136 18.0475L21.0674 17.7143C21.1097 17.6927 21.1265 17.641 21.105 17.5988L20.3211 16.0599C20.2995 16.0177 20.3163 15.966 20.3586 15.9444L21.2067 15.5122C21.249 15.4906 21.3007 15.5074 21.3222 15.5497L22.1929 17.2589C22.2145 17.3012 22.2662 17.318 22.3084 17.2965L22.9653 16.9617C23.0075 16.9402 23.0243 16.8884 23.0028 16.8462L21.5976 14.0878C21.5761 14.0455 21.5244 14.0287 21.4821 14.0502L17.2839 16.1898C17.2416 16.2114 17.2248 16.2631 17.2463 16.3053L17.7028 17.2015C17.7244 17.2438 17.7761 17.2606 17.8183 17.239L19.3987 16.4336C19.4409 16.4121 19.4926 16.4289 19.5142 16.4712L20.2981 18.01ZM24.7695 22.1276C24.7272 22.1491 24.6755 22.1323 24.654 22.09L24.0665 20.9368C24.045 20.8946 23.9933 20.8777 23.951 20.8993L20.5626 22.6261C20.5204 22.6477 20.4686 22.6309 20.4471 22.5886L19.9906 21.6924C19.9691 21.6502 19.9859 21.5985 20.0281 21.5769L23.4165 19.8501C23.4588 19.8285 23.4756 19.7768 23.4541 19.7346L22.8788 18.6052C22.8572 18.563 22.874 18.5113 22.9163 18.4897L23.5732 18.155C23.6154 18.1334 23.6671 18.1502 23.6887 18.1925L25.4639 21.6773C25.4854 21.7196 25.4686 21.7713 25.4263 21.7928L24.7695 22.1276ZM23.7805 25.6709C23.8228 25.6493 23.8745 25.6661 23.896 25.7084L24.1981 26.3014C24.4681 26.8315 24.8068 27.1835 25.2142 27.3575C25.6245 27.5324 26.0419 27.5118 26.4662 27.2955C26.7531 27.1493 26.9731 26.948 27.1262 26.6918C27.2822 26.4366 27.3556 26.1494 27.3461 25.8304C27.3397 25.5124 27.2518 25.187 27.0822 24.8542L26.2365 23.194C26.215 23.1517 26.1633 23.1349 26.121 23.1565L21.9227 25.2961C21.8805 25.3176 21.8637 25.3693 21.8852 25.4116L22.3417 26.3077C22.3632 26.35 22.4149 26.3668 22.4572 26.3453L23.7805 25.6709Z" fill="#4285F4"/>
</svg>
