<svg width="34" height="34" viewBox="0 0 34 34" fill="none" xmlns="http://www.w3.org/2000/svg">
<path d="M16.3066 7.93145L21.6789 18.6774H23.0657L17 6.54449L16.3066 7.93145Z" fill="#4285F4"/>
<path fill-rule="evenodd" clip-rule="evenodd" d="M9.66219 20.25H24.3378C24.9222 20.25 25.3023 19.6349 25.041 19.1121L17.7032 4.43466C17.4135 3.85511 16.5866 3.85511 16.2968 4.43466L8.95902 19.1121C8.69764 19.6349 9.07774 20.25 9.66219 20.25ZM19.8432 18.5221C19.8789 18.5934 19.827 18.6774 19.7472 18.6774H11.108C11.0282 18.6774 10.9763 18.5934 11.012 18.5221L15.3316 9.88169C15.3712 9.80257 15.4841 9.80257 15.5236 9.88169L19.8432 18.5221Z" fill="#4285F4"/>
<path d="M28.7812 21.875C28.1082 21.875 27.5625 22.4207 27.5625 23.0938V25.9375C27.5625 26.835 26.835 27.5625 25.9375 27.5625H8.0625C7.16504 27.5625 6.4375 26.835 6.4375 25.9375V23.0938C6.4375 22.4207 5.89185 21.875 5.21875 21.875C4.54565 21.875 4 22.4207 4 23.0938V26.75C4 28.5375 5.4625 30 7.25 30H26.75C28.5375 30 30 28.5375 30 26.75V23.0938C30 22.4207 29.4543 21.875 28.7812 21.875Z" fill="#4285F4"/>
<path d="M10.9909 25.7355C10.9909 25.6458 10.9402 25.5738 10.8388 25.5195C10.7374 25.4652 10.5448 25.4089 10.2608 25.3504C9.9769 25.292 9.74255 25.2158 9.55777 25.1219C9.373 25.0259 9.23216 24.91 9.13527 24.7743C9.03837 24.6386 8.98992 24.4831 8.98992 24.3078C8.98992 23.9968 9.1285 23.7411 9.40567 23.5407C9.68284 23.3382 10.0456 23.237 10.4941 23.237C10.9763 23.237 11.3639 23.3382 11.6568 23.5407C11.8485 23.6732 11.9775 23.833 12.0437 24.02C12.1037 24.1892 11.9507 24.3391 11.7712 24.3391H11.2787C11.0992 24.3391 10.9769 24.1655 10.8468 24.0419C10.7697 23.9687 10.651 23.9321 10.4907 23.9321C10.3712 23.9321 10.271 23.9634 10.1898 24.026C10.1087 24.0865 10.0682 24.1627 10.0682 24.2546C10.0682 24.3485 10.1177 24.4247 10.2169 24.4831C10.316 24.5416 10.4738 24.5896 10.6901 24.6272C10.9087 24.6647 11.1002 24.7096 11.2647 24.7618C11.8145 24.9371 12.0894 25.2513 12.0894 25.7042C12.0894 26.0132 11.9407 26.2647 11.6433 26.4588C11.3481 26.6529 10.965 26.75 10.4941 26.75C10.1808 26.75 9.90141 26.6978 9.6558 26.5934C9.41018 26.4891 9.21864 26.3471 9.08118 26.1676C9.01894 26.0863 8.97078 26.0031 8.93672 25.918C8.87006 25.7513 9.02051 25.6009 9.2 25.6009H9.62394C9.79979 25.6009 9.9249 25.7627 10.045 25.8912C10.0637 25.9112 10.085 25.9293 10.1087 25.9453C10.2169 26.0163 10.3555 26.0518 10.5245 26.0518C10.68 26.0518 10.796 26.0226 10.8726 25.9641C10.9515 25.9057 10.9909 25.8295 10.9909 25.7355Z" fill="#4285F4"/>
<path d="M14.8652 26.3624C14.8652 26.5419 14.7196 26.6874 14.5402 26.6874H14.0477C13.8682 26.6874 13.7227 26.5419 13.7227 26.3624V23.6246C13.7227 23.4451 13.8682 23.2996 14.0477 23.2996H14.5401C14.7196 23.2996 14.8652 23.4451 14.8652 23.6246V26.3624Z" fill="#4285F4"/>
<path d="M17.4147 23.2996C17.5505 23.2996 17.664 23.403 17.6767 23.5383C17.6822 23.5967 17.7576 23.6208 17.8002 23.5803C18.0407 23.3514 18.3526 23.237 18.736 23.237C19.1168 23.237 19.4007 23.3424 19.5878 23.5532C19.7771 23.764 19.8751 24.0813 19.8818 24.5051V26.3624C19.8818 26.5419 19.7363 26.6874 19.5568 26.6874H19.0644C18.8849 26.6874 18.7394 26.5419 18.7394 26.3624V24.5489C18.7394 24.3777 18.7022 24.2525 18.6278 24.1732C18.5535 24.0918 18.4183 24.0511 18.2222 24.0511C18.0375 24.0511 17.8922 24.1069 17.7863 24.2185C17.7422 24.2649 17.7254 24.3294 17.7254 24.3934V26.3624C17.7254 26.5419 17.5799 26.6874 17.4004 26.6874H16.9113C16.7318 26.6874 16.5863 26.5419 16.5863 26.3624V23.6246C16.5863 23.4451 16.7318 23.2996 16.9113 23.2996H17.4147Z" fill="#4285F4"/>
<path d="M23.0748 25.5082C23.0477 25.4652 22.9882 25.4574 22.9509 25.492L22.7275 25.6989C22.7109 25.7143 22.7015 25.7359 22.7015 25.7585V26.3624C22.7015 26.5419 22.556 26.6874 22.3765 26.6874H21.8874C21.7079 26.6874 21.5624 26.5419 21.5624 26.3624V22.2C21.5624 22.0205 21.7079 21.875 21.8874 21.875H22.3765C22.556 21.875 22.7015 22.0205 22.7015 22.2V24.2481C22.7015 24.309 22.7779 24.3362 22.8164 24.289L23.5778 23.4116C23.6395 23.3405 23.729 23.2996 23.8232 23.2996H24.3002C24.5832 23.2996 24.731 23.6362 24.5394 23.8446L23.8032 24.6453C23.7776 24.6732 23.7746 24.715 23.796 24.7462L24.7768 26.1788C24.9244 26.3945 24.77 26.6874 24.5086 26.6874H23.9993C23.8879 26.6874 23.7842 26.6303 23.7246 26.536L23.0748 25.5082Z" fill="#4285F4"/>
</svg>
